<?xml version="1.0" encoding="UTF-8" standalone="no"?>
<!-- Created with Inkscape (http://www.inkscape.org/) -->

<svg
   xmlns:dc="http://purl.org/dc/elements/1.1/"
   xmlns:cc="http://creativecommons.org/ns#"
   xmlns:rdf="http://www.w3.org/1999/02/22-rdf-syntax-ns#"
   xmlns:svg="http://www.w3.org/2000/svg"
   xmlns="http://www.w3.org/2000/svg"
   xmlns:sodipodi="http://sodipodi.sourceforge.net/DTD/sodipodi-0.dtd"
   xmlns:inkscape="http://www.inkscape.org/namespaces/inkscape"
   width="1280"
   height="800"
   id="svg2"
   version="1.1"
   inkscape:version="0.48.4 r9939"
   sodipodi:docname="interior.svg">
  <defs
     id="defs4">
    <inkscape:path-effect
       effect="spiro"
       id="path-effect3794"
       is_visible="true" />
  </defs>
  <sodipodi:namedview
     id="base"
     pagecolor="#ffffff"
     bordercolor="#666666"
     borderopacity="1.0"
     inkscape:pageopacity="0.0"
     inkscape:pageshadow="2"
     inkscape:zoom="0.49497475"
     inkscape:cx="695.15023"
     inkscape:cy="395.70373"
     inkscape:document-units="px"
     inkscape:current-layer="layer1"
     showgrid="false"
     inkscape:window-width="1920"
     inkscape:window-height="1017"
     inkscape:window-x="-8"
     inkscape:window-y="-8"
     inkscape:window-maximized="1" />
  <metadata
     id="metadata7">
    <rdf:RDF>
      <cc:Work
         rdf:about="">
        <dc:format>image/svg+xml</dc:format>
        <dc:type
           rdf:resource="http://purl.org/dc/dcmitype/StillImage" />
      </cc:Work>
    </rdf:RDF>
  </metadata>
  <g
     inkscape:label="Layer 1"
     inkscape:groupmode="layer"
     id="layer1"
     transform="translate(0,-252.36218)">
    <path
       style="fill:#272727;fill-opacity:1;stroke:none;opacity:0.9"
       d="M 0 0 L 0 800 L 1280 800 L 1280 0 L 0 0 z M 474.78125 32.28125 L 488.90625 33.28125 L 838.4375 34.3125 C 838.4375 34.3125 1139.4542 39.356279 1203.0938 47.4375 C 1266.7333 55.51872 1247.5312 111.0625 1247.5312 111.0625 L 1137.4375 440.375 C 1137.4375 440.375 1119.2538 483.82266 1094 482.8125 C 1068.7462 481.80234 656.59375 479.78125 656.59375 479.78125 L 194.96875 483.8125 C 194.96875 483.8125 173.74287 493.93498 146.46875 444.4375 C 133.79363 421.43452 91.9375 281.78125 91.9375 281.78125 L 31.3125 106.03125 C 31.3125 106.03125 21.220483 60.570275 67.6875 50.46875 C 114.15452 40.367224 330.3125 37.34375 330.3125 37.34375 L 474.78125 32.28125 z "
       transform="translate(0,252.36218)"
       id="rect2985" />
    <rect
       style="opacity:1;fill:#000000;fill-opacity:0.37799042;stroke:none"
       id="rect3805"
       width="199.00006"
       height="159.60411"
       x="526.28949"
       y="843.26056"
       rx="20"
       ry="20" />
    <rect
       style="fill:#525252;fill-opacity:1;stroke:#000000;stroke-width:1;stroke-linecap:round;stroke-linejoin:miter;stroke-miterlimit:4;stroke-opacity:1;stroke-dasharray:none;stroke-dashoffset:0"
       id="rect3840"
       width="391.93918"
       height="67.680222"
       x="776.80731"
       y="876.59564" />
    <path
       style="fill:#525252;fill-opacity:1;stroke:#000000;stroke-opacity:1"
       d="M 966.71875 448.46875 C 849.56146 448.46875 754.59375 543.43646 754.59375 660.59375 C 754.59375 777.75104 849.56146 872.71875 966.71875 872.71875 C 1083.876 872.71875 1178.8438 777.75104 1178.8438 660.59375 C 1178.8438 543.43646 1083.876 448.46875 966.71875 448.46875 z M 970.5 488.28125 C 1066.9226 488.28125 1145.0938 566.45244 1145.0938 662.875 C 1145.0938 759.29756 1066.9226 837.46875 970.5 837.46875 C 874.07744 837.46875 795.90625 759.29756 795.90625 662.875 C 795.90625 566.45244 874.07744 488.28125 970.5 488.28125 z "
       transform="translate(0,252.36218)"
       id="path3809" />
    <path
       transform="matrix(0.23514801,0,0,0.23514801,744.44794,758.63022)"
       d="m 1178.848,660.59894 a 212.13203,212.13203 0 1 1 -424.26403,0 212.13203,212.13203 0 1 1 424.26403,0 z"
       sodipodi:ry="212.13203"
       sodipodi:rx="212.13203"
       sodipodi:cy="660.59894"
       sodipodi:cx="966.716"
       id="path3829"
       style="fill:#525252;fill-opacity:1;stroke:#000000;stroke-opacity:1;stroke-width:4.25264071;stroke-miterlimit:4;stroke-dasharray:none"
       sodipodi:type="arc" />
  </g>
</svg>
